<?xml version="1.0" standalone="no"?>
<!DOCTYPE svg PUBLIC "-//W3C//DTD SVG 20010904//EN"
 "http://www.w3.org/TR/2001/REC-SVG-20010904/DTD/svg10.dtd">
<svg version="1.0" xmlns="http://www.w3.org/2000/svg"
 width="1280.000000pt" height="1280.000000pt" viewBox="0 0 1280.000000 1280.000000"
 preserveAspectRatio="xMidYMid meet">
<metadata>
Created by potrace 1.15, written by Peter Selinger 2001-2017
</metadata>
<g transform="translate(0.000000,1280.000000) scale(0.100000,-0.100000)"
fill="#000000" stroke="none">
<path d="M5261 12316 c-73 -26 -116 -117 -70 -149 20 -15 20 -15 1 -53 -23
-48 -16 -84 20 -102 15 -7 30 -21 33 -32 10 -32 39 -41 109 -34 59 6 68 4 118
-24 29 -17 61 -30 72 -29 15 2 22 -11 38 -63 29 -104 48 -237 48 -349 0 -62 6
-130 16 -168 l16 -64 -27 -34 c-14 -19 -31 -35 -37 -35 -27 0 -157 -71 -189
-103 l-35 -35 -145 4 c-79 2 -167 6 -196 9 -49 7 -51 8 -55 41 -3 27 1 37 18
49 12 7 36 40 54 72 27 48 34 71 38 133 8 144 -26 250 -94 286 -38 20 -39 22
-52 100 -7 43 -20 89 -28 102 -9 13 -22 48 -30 78 -16 63 -81 171 -127 211
-44 38 -209 120 -280 138 -77 20 -168 19 -211 -2 -33 -15 -37 -15 -54 0 -42
39 -134 26 -253 -34 -31 -16 -60 -29 -65 -29 -4 0 -31 -16 -60 -36 -62 -43
-96 -89 -122 -164 -11 -30 -41 -102 -68 -160 l-49 -105 0 -120 c1 -93 6 -137
23 -199 22 -78 141 -320 200 -407 17 -25 44 -83 61 -128 17 -46 46 -113 66
-148 l36 -65 -36 -40 c-22 -24 -34 -46 -31 -56 20 -67 34 -135 30 -147 -4 -10
-18 -12 -54 -8 -66 8 -116 -22 -210 -127 -69 -77 -72 -82 -65 -117 4 -20 18
-66 32 -101 l26 -64 -21 -42 c-12 -24 -31 -51 -43 -62 -26 -23 -97 -132 -134
-204 -27 -53 -29 -54 -138 -94 -29 -11 -71 -40 -107 -75 -54 -51 -60 -61 -60
-97 0 -72 -68 -148 -215 -239 -189 -116 -456 -342 -795 -671 -107 -104 -225
-213 -262 -242 -38 -30 -68 -57 -68 -61 0 -4 -9 -17 -21 -30 -23 -24 -46 -23
-126 6 -85 31 -223 -14 -266 -86 -27 -46 -57 -140 -57 -178 0 -41 39 -88 87
-104 31 -10 33 -13 27 -45 -4 -24 -2 -35 7 -38 8 -2 44 -13 80 -25 84 -27 103
-26 206 5 95 29 117 47 273 230 161 187 237 245 531 400 90 48 175 95 189 104
43 30 171 105 255 150 120 64 161 98 294 239 67 71 136 136 155 145 43 20 110
21 126 1 7 -8 18 -15 24 -15 14 0 112 69 148 105 27 26 193 95 230 95 10 0 62
-34 116 -75 104 -79 276 -185 300 -185 8 0 51 -22 96 -50 93 -55 118 -90 156
-216 17 -58 20 -91 18 -180 -2 -60 3 -138 9 -174 15 -74 17 -321 4 -335 -9
-11 -85 -203 -108 -275 -15 -47 -30 -200 -39 -410 -6 -109 -3 -143 20 -266 30
-159 33 -201 19 -229 -6 -11 -13 -61 -17 -112 l-7 -92 31 -16 c27 -14 30 -20
30 -64 0 -39 4 -50 19 -54 27 -7 46 -121 30 -179 -16 -60 -14 -131 6 -231 9
-48 14 -91 11 -95 -10 -9 -190 53 -278 97 -72 35 -73 37 -71 72 3 41 10 35
-113 78 -34 12 -88 26 -120 32 -32 6 -80 22 -108 35 -54 26 -87 30 -133 13
-45 -15 -96 -123 -123 -261 -6 -33 -17 -58 -24 -58 -60 0 -506 193 -506 220 0
4 7 13 15 20 37 31 18 48 -155 139 -75 39 -149 83 -165 99 -51 50 -91 65 -151
57 -43 -5 -54 -10 -54 -24 0 -10 -9 -30 -20 -44 -11 -14 -20 -29 -20 -35 0 -5
-9 -21 -21 -36 -11 -15 -18 -33 -15 -41 3 -8 0 -18 -7 -22 -13 -9 -24 -33 -58
-138 -12 -38 -33 -92 -46 -120 -12 -27 -25 -66 -29 -85 -3 -19 -14 -53 -24
-75 -10 -22 -28 -74 -41 -115 -22 -73 -31 -97 -62 -170 -28 -65 -175 -464
-195 -532 -43 -137 -65 -312 -44 -345 4 -7 34 -24 65 -39 48 -21 67 -25 103
-19 25 3 54 15 63 24 10 10 53 74 95 142 122 198 290 404 437 538 57 52 116
107 131 122 35 35 72 47 181 58 94 9 136 4 210 -28 59 -25 285 -150 292 -160
2 -5 -4 -62 -15 -127 -34 -204 -20 -495 27 -592 13 -28 28 -40 58 -51 92 -31
157 -13 197 55 21 36 108 337 108 374 0 33 19 90 30 90 4 0 77 -41 161 -91
150 -90 307 -173 444 -236 39 -18 118 -63 177 -101 122 -79 225 -117 338 -128
156 -14 295 31 405 129 53 47 125 152 125 183 0 8 6 17 13 20 17 6 119 -48
259 -137 148 -95 193 -112 298 -113 94 0 217 33 281 77 45 30 134 150 154 206
17 51 20 144 5 220 -9 47 -7 55 12 81 l21 29 -22 123 c-12 68 -26 143 -31 168
-10 47 -27 202 -34 305 -6 90 -15 135 -40 191 -13 27 -26 72 -30 100 -4 27
-16 74 -26 104 -38 117 -60 196 -60 217 0 12 -4 24 -9 27 -5 3 -11 18 -14 33
-3 16 -10 46 -16 68 -6 22 -15 58 -20 80 -9 42 -51 209 -77 310 -20 80 -56
138 -100 165 -32 20 -35 26 -30 55 4 20 -5 91 -24 181 -16 82 -30 154 -30 161
0 7 30 30 68 51 37 21 100 58 141 82 40 23 91 58 112 77 l38 35 -37 60 c-20
33 -68 89 -106 125 -66 63 -70 69 -116 192 -26 69 -65 167 -86 216 l-38 90 -7
265 c-5 174 -12 293 -22 345 -15 76 -99 374 -111 393 -3 5 -10 42 -17 83 -15
100 -50 208 -119 369 -78 184 -160 451 -160 523 0 29 28 62 104 125 21 17 27
28 22 45 -4 12 -9 52 -13 88 l-6 67 135 139 c149 155 178 201 178 282 0 50 -8
84 -82 326 -38 126 -124 308 -213 450 -66 105 -69 112 -67 165 3 74 -17 104
-105 157 -111 65 -176 77 -283 48 -48 -13 -56 -13 -63 0 -10 18 -68 19 -116 1z"/>
<path d="M9465 9023 c-22 -20 -101 -88 -175 -151 -74 -64 -139 -120 -145 -127
-5 -6 -62 -55 -125 -110 -63 -54 -120 -103 -126 -109 -6 -6 -37 -33 -69 -61
-82 -70 -238 -207 -251 -219 -6 -6 -37 -33 -70 -61 -32 -27 -97 -84 -144 -125
-107 -95 -126 -111 -230 -201 -47 -41 -99 -86 -115 -100 -17 -15 -55 -48 -85
-74 -59 -51 -71 -61 -201 -175 -47 -41 -110 -96 -140 -122 -147 -126 -173
-155 -156 -170 1 -2 252 -5 557 -8 l555 -5 3 -30 c2 -16 -1 -46 -7 -67 -6 -20
-18 -69 -25 -110 -24 -123 -36 -173 -87 -348 -12 -41 -27 -91 -34 -110 -7 -19
-23 -69 -36 -110 -13 -41 -29 -84 -36 -95 -7 -11 -13 -29 -13 -40 0 -11 -6
-29 -14 -40 -7 -11 -17 -31 -21 -45 -4 -14 -23 -59 -42 -100 -19 -41 -41 -88
-48 -105 -27 -60 -133 -271 -154 -305 -11 -19 -25 -45 -30 -57 -6 -12 -33 -58
-61 -103 -27 -45 -50 -83 -50 -85 0 -3 -19 -32 -42 -65 -24 -33 -48 -68 -53
-78 -6 -9 -19 -30 -30 -47 -25 -39 -253 -335 -274 -356 -9 -9 -38 -42 -66 -75
-103 -123 -264 -282 -490 -483 -23 -21 -250 -197 -320 -249 -73 -53 -251 -168
-355 -227 -10 -6 -24 -16 -31 -22 -15 -12 -323 -167 -399 -201 -25 -11 -88
-36 -140 -57 -52 -20 -115 -45 -140 -54 -25 -10 -99 -35 -165 -55 -66 -20
-135 -42 -154 -48 -70 -22 -249 -60 -461 -99 -91 -16 -294 -37 -497 -50 -184
-11 -381 -4 -658 26 -254 28 -247 28 -275 6 -21 -17 -25 -28 -25 -71 0 -58 10
-70 79 -93 23 -8 57 -20 76 -26 37 -13 103 -33 185 -56 161 -46 207 -58 268
-71 38 -8 72 -16 77 -19 13 -8 211 -45 395 -74 191 -30 314 -42 582 -57 273
-16 313 -16 590 0 364 20 502 37 873 109 91 17 208 44 275 62 191 51 306 85
343 101 18 8 40 14 50 14 9 1 35 9 57 20 22 11 48 19 57 20 9 0 29 6 45 14 15
8 55 24 88 36 33 12 74 27 90 35 17 7 55 23 85 35 77 30 120 51 320 148 260
128 476 256 720 427 98 69 114 80 134 97 12 9 44 34 72 55 280 206 662 588
920 918 251 321 485 723 648 1110 9 22 22 49 28 59 6 11 14 31 19 45 4 14 20
58 34 96 14 39 37 106 51 150 14 44 31 96 38 115 13 35 28 87 46 165 6 22 16
63 24 90 18 64 43 173 56 250 6 33 16 87 23 120 l14 60 469 5 c258 3 470 7
472 8 8 8 -1 31 -20 48 -13 11 -66 57 -118 103 -52 46 -111 97 -130 114 -19
17 -84 73 -145 125 -60 53 -144 126 -185 162 -41 37 -113 100 -160 140 -47 40
-119 104 -161 141 -41 38 -92 81 -112 97 -30 25 -152 131 -191 167 -6 6 -63
56 -126 110 -63 54 -119 104 -125 110 -5 7 -71 64 -145 127 -74 64 -144 124
-155 135 -11 10 -67 58 -123 107 -57 49 -120 104 -140 122 -20 19 -46 34 -57
34 -11 0 -38 -17 -60 -37z"/>
<path d="M10886 6898 c-4 -22 -11 -53 -41 -183 -8 -33 -21 -82 -29 -110 -8
-27 -23 -81 -34 -120 -11 -38 -25 -83 -31 -100 -5 -16 -20 -59 -32 -95 -12
-36 -28 -79 -35 -97 -8 -17 -14 -37 -14 -45 0 -8 -4 -18 -9 -24 -5 -5 -21 -40
-35 -79 -15 -38 -33 -83 -41 -100 -7 -16 -22 -50 -33 -75 -97 -216 -226 -457
-367 -686 -50 -80 -193 -284 -282 -401 l-63 -82 2 -2183 3 -2183 520 -3 c286
-1 530 0 543 3 l22 5 -2 3288 c-3 3095 -4 3287 -20 3290 -11 2 -19 -4 -22 -20z"/>
<path d="M9175 4009 c-61 -54 -300 -244 -410 -327 -49 -36 -233 -159 -324
-214 -29 -18 -65 -41 -80 -50 -14 -10 -39 -24 -56 -33 -59 -31 -80 -44 -92
-61 -10 -14 -13 -318 -13 -1493 0 -812 4 -1482 8 -1489 7 -10 122 -12 543 -10
l534 3 0 1870 c0 1654 -2 1870 -15 1872 -8 1 -51 -30 -95 -68z"/>
<path d="M7560 3019 c-19 -10 -42 -19 -50 -19 -8 0 -24 -7 -34 -15 -11 -8 -27
-15 -35 -15 -9 0 -28 -6 -43 -14 -15 -8 -42 -17 -60 -21 -18 -4 -42 -14 -53
-21 -11 -8 -28 -14 -38 -14 -11 0 -33 -6 -50 -14 -18 -8 -50 -19 -72 -24 -22
-6 -56 -16 -75 -22 -82 -28 -98 -33 -150 -45 -85 -21 -141 -35 -195 -50 -27
-7 -68 -17 -90 -22 l-40 -8 0 -1190 0 -1190 529 -3 c292 -1 534 2 538 6 8 8 9
633 8 2510 l0 192 -27 -1 c-16 0 -44 -9 -63 -20z"/>
<path d="M3323 2893 c-10 -4 -13 -268 -13 -1278 0 -1151 2 -1273 16 -1279 9
-3 248 -6 533 -6 389 0 520 3 529 12 15 15 18 2242 3 2281 -8 21 -18 25 -73
31 -35 4 -97 13 -138 22 -156 32 -227 47 -285 61 -33 9 -81 19 -107 23 -26 5
-55 13 -65 18 -10 5 -38 13 -63 17 -25 4 -57 14 -72 21 -15 8 -36 14 -47 14
-11 0 -35 6 -53 14 -67 27 -153 53 -165 49z"/>
<path d="M5860 2604 c-58 -10 -215 -16 -490 -19 -223 -3 -411 -8 -417 -10 -20
-7 -19 -2218 1 -2234 9 -8 160 -10 542 -9 l529 3 0 1140 0 1140 -40 1 c-22 1
-78 -4 -125 -12z"/>
</g>
</svg>
